<svg xmlns="http://www.w3.org/2000/svg" viewBox="0 0 472.04 119.82"><defs><style>.cls-1{fill:#fff;}</style></defs><g id="Layer_2" data-name="Layer 2"><g id="Layer_1-2" data-name="Layer 1"><path class="cls-1" d="M197.74,58.35a2.93,2.93,0,0,1-.42,1.59,2.61,2.61,0,0,1-1.13,1,30.53,30.53,0,0,1-7.3,3.06,30.52,30.52,0,0,1-29.19-7.8,28.91,28.91,0,0,1-8.85-21.27,28.93,28.93,0,0,1,8.85-21.26A28.82,28.82,0,0,1,181,4.83a30.38,30.38,0,0,1,7.85,1A29,29,0,0,1,196.15,9a2.86,2.86,0,0,1,1.51,2.48,2.1,2.1,0,0,1-.13.75c-.08.21-.17.42-.29.67a2.88,2.88,0,0,1-.8,1,3.6,3.6,0,0,1-1,.55l0,0a1.52,1.52,0,0,1-.51.12h-.46a2.67,2.67,0,0,1-1.43-.33A23.77,23.77,0,0,0,181,10.82a23.22,23.22,0,0,0-17,7.05,23.17,23.17,0,0,0-7,17,23.17,23.17,0,0,0,7,17,23.18,23.18,0,0,0,17,7,24.12,24.12,0,0,0,10.62-2.48V38.26H178.24q-3,0-3-3c0-2.07,1-3.06,3-3.06h16.4c2.05,0,3.06,1,3.06,3.06v23Z"/><path class="cls-1" d="M226.17,58.69a3.16,3.16,0,0,1,2.1,1,2.87,2.87,0,0,1,1,2.18,3,3,0,0,1-1,2.27,2.89,2.89,0,0,1-2.18.87h-.21a21.13,21.13,0,0,1-15.35-6.28,21,21,0,0,1-6.63-15.36V8.73a3.08,3.08,0,0,1,.92-2.27,3.2,3.2,0,0,1,4.49,0,3.38,3.38,0,0,1,.93,2.27V42.87a15.56,15.56,0,0,0,1.13,6,16.67,16.67,0,0,0,3.23,5l.58.5a3.07,3.07,0,0,1,.51.51,2.52,2.52,0,0,0,.63.54c0,.05.09.09.09.13a2.26,2.26,0,0,0,.37.25,2.49,2.49,0,0,0,.38.3l.3.16.62.38a2.41,2.41,0,0,1,.5.38l1.13.38,1.14.37,1.47.34,1.38.38,2.44.16Z"/><path class="cls-1" d="M271.72,28.28a20.66,20.66,0,0,1,6.34,15.1,20.57,20.57,0,0,1-6.34,15.1,21.21,21.21,0,0,1-30.15,0,20.5,20.5,0,0,1-6.3-15.1,20.6,20.6,0,0,1,6.3-15.1,21.19,21.19,0,0,1,30.15,0ZM256.67,58.52a15.06,15.06,0,0,0,15.14-15.14,15.19,15.19,0,0,0-25.88-10.7,14.85,14.85,0,0,0-4.44,10.73,15.11,15.11,0,0,0,15.18,15.15Z"/><path class="cls-1" d="M304.74,22.11a17.06,17.06,0,0,1,12.41,5.2,17,17,0,0,1,5.24,12.5,3.24,3.24,0,0,1-3.14,3.06,3.33,3.33,0,0,1-2.15-.76,3.73,3.73,0,0,1-.92-2.3,11.16,11.16,0,0,0-3.4-8.19,11.76,11.76,0,0,0-3.68-2.46,11.55,11.55,0,0,0-4.41-.85,11,11,0,0,0-8.09,3.31,11.16,11.16,0,0,0-3.4,8.19V62.25a3,3,0,0,1-.88,2.22,3.4,3.4,0,0,1-2.18.89,3,3,0,0,1-2.27-.93,4.45,4.45,0,0,1-.63-1,3,3,0,0,1-.25-1.22V39.48a16.73,16.73,0,0,1,5.29-12.33A17.23,17.23,0,0,1,304.69,22Z"/><path class="cls-1" d="M333.75,21.1a3.49,3.49,0,0,1,2.61,1.3,6.78,6.78,0,0,1,.37.76,2.83,2.83,0,0,1,.17,1.13V61.83a2.74,2.74,0,0,1-.59,1.88A3.38,3.38,0,0,1,333.8,65a3.13,3.13,0,0,1-2.14-1,2.89,2.89,0,0,1-1-2.22V24.25a2.86,2.86,0,0,1,1-2.19,3.17,3.17,0,0,1,2.14-1Zm2.43-14.85a3.17,3.17,0,0,1,.89,2.27v7a3.16,3.16,0,0,1-.92,2.22,3,3,0,0,1-2.18.93,2.8,2.8,0,0,1-2.22-1,3.35,3.35,0,0,1-.72-1,2.93,2.93,0,0,1-.25-1.14v-7a3,3,0,0,1,1-2.35v0a2.94,2.94,0,0,1,2.14-.84A3.36,3.36,0,0,1,336.18,6.25Z"/><path class="cls-1" d="M379.73,28.28a20.69,20.69,0,0,1,6.33,15.1,20.6,20.6,0,0,1-6.33,15.1,21.22,21.22,0,0,1-30.16,0,20.46,20.46,0,0,1-6.3-15.1,20.56,20.56,0,0,1,6.3-15.1,21.2,21.2,0,0,1,30.16,0ZM364.66,58.52a15.06,15.06,0,0,0,15.15-15.14,15.19,15.19,0,0,0-25.88-10.7,14.85,14.85,0,0,0-4.44,10.73,15.11,15.11,0,0,0,15.17,15.15Z"/><path class="cls-1" d="M427.46,22.06a2.73,2.73,0,0,1,2.21,1,3.33,3.33,0,0,1,.89,2.14V47.4a16.56,16.56,0,0,1-5.25,12.34,17.94,17.94,0,0,1-28.94-5.42A16.58,16.58,0,0,1,395,47.69V25.17a2.8,2.8,0,0,1,.92-2.14,3.1,3.1,0,0,1,2.22-1,2.91,2.91,0,0,1,2.32,1c0,.12.08.2.08.25a2.74,2.74,0,0,1,.46.92,4.27,4.27,0,0,1,.12,1V47.48a10.65,10.65,0,0,0,3.44,7.93,11.41,11.41,0,0,0,8.19,3.36,11.63,11.63,0,0,0,4.39-.83A12.54,12.54,0,0,0,421,55.41a10.71,10.71,0,0,0,3.35-7.93V25.25a2.93,2.93,0,0,1,.92-2.14,3.17,3.17,0,0,1,2.18-1Z"/><path class="cls-1" d="M471,47.28A10.09,10.09,0,0,1,472,52.23v.83a5.63,5.63,0,0,1,0,.84,8.38,8.38,0,0,1-.67,2.56A11.08,11.08,0,0,1,469.82,59a15,15,0,0,1-6.12,4.65,22.53,22.53,0,0,1-8.81,1.55,19,19,0,0,1-9.56-2.39,18.16,18.16,0,0,1-3.91-2.89,15.58,15.58,0,0,1-2.89-3.77h0a2.82,2.82,0,0,1-.5-1.6v-.46a1.53,1.53,0,0,1,.12-.5,3.83,3.83,0,0,1,.51-1,2.63,2.63,0,0,1,1-.76l0,.05a2.67,2.67,0,0,1,1.51-.5,2.53,2.53,0,0,1,1,.2v0a3,3,0,0,1,1,.59,3.72,3.72,0,0,1,.75.88,16,16,0,0,0,1.89,2.43,10.9,10.9,0,0,0,2.52,1.94,15.13,15.13,0,0,0,3.1,1.25,12.23,12.23,0,0,0,3.36.42,15.83,15.83,0,0,0,5.91-1,9.54,9.54,0,0,0,4-2.77,4.52,4.52,0,0,0,.93-1.77v-.25a3.42,3.42,0,0,0,.09-.63v-.5a6.31,6.31,0,0,0-.05-1,2,2,0,0,0-.25-.75,7,7,0,0,0-2.1-2.1A8.85,8.85,0,0,0,460,47.07a23.67,23.67,0,0,0-4.95-.43,28.39,28.39,0,0,1-6.92-.74,13.78,13.78,0,0,1-4.82-2.15,18.52,18.52,0,0,1-2.51-2.22,9.06,9.06,0,0,1-1.64-2.27,9.4,9.4,0,0,1-.8-4.52l0-1.1a7.58,7.58,0,0,1,.63-2.52,12.47,12.47,0,0,1,1.51-2.55,15,15,0,0,1,6.12-4.66,22.62,22.62,0,0,1,8.77-1.59A19.26,19.26,0,0,1,462,23.45a20.75,20.75,0,0,1,5.71,3.14,4.59,4.59,0,0,1,.88.89,2.78,2.78,0,0,1,.38,1.38,4.9,4.9,0,0,1-.13,1.14,2.39,2.39,0,0,1-.5.92,2.69,2.69,0,0,1-.93.79,3,3,0,0,1-1.38.34,3.13,3.13,0,0,1-2-.59s-.08,0-.13-.08a12.5,12.5,0,0,0-8.3-3,15.43,15.43,0,0,0-5.92,1,10.14,10.14,0,0,0-3.94,2.76v0a3.75,3.75,0,0,0-.88,1.76v.51a7.5,7.5,0,0,0,.17,2.13v-.08a6.63,6.63,0,0,0,2.14,2.1,9.75,9.75,0,0,0,3.27,1.21,23.14,23.14,0,0,0,4.86.47,30.51,30.51,0,0,1,6.88.71,14.46,14.46,0,0,1,4.91,2,18.28,18.28,0,0,1,2.3,2A10.4,10.4,0,0,1,471,47H471Z"/><path class="cls-1" d="M175.52,76.14V105a1.62,1.62,0,0,1-3.24,0V92.17H154.07V105a1.61,1.61,0,1,1-3.22,0V76.14a1.61,1.61,0,1,1,3.22,0v12.8h18.21V76.14a1.62,1.62,0,1,1,3.24,0Z"/><path class="cls-1" d="M199.83,83.21a1.86,1.86,0,0,1,1.38.7,3.15,3.15,0,0,1,.2.41,1.46,1.46,0,0,1,.09.6v20a1.52,1.52,0,0,1-.09.6,1.4,1.4,0,0,1-.23.4,1.81,1.81,0,0,1-1.33.67,1.62,1.62,0,0,1-1.14-.51,1.56,1.56,0,0,1-.54-1.19v-20a1.51,1.51,0,0,1,.54-1.17,1.68,1.68,0,0,1,1.14-.52Zm1.29-7.91a1.73,1.73,0,0,1,.47,1.21v3.73a1.72,1.72,0,0,1-.49,1.19,1.57,1.57,0,0,1-1.16.49,1.52,1.52,0,0,1-1.19-.51,2,2,0,0,1-.38-.54,1.44,1.44,0,0,1-.13-.6V76.53a1.61,1.61,0,0,1,.53-1.25v0a1.59,1.59,0,0,1,1.14-.44A1.85,1.85,0,0,1,201.12,75.3Z"/><path class="cls-1" d="M249.12,83.82a8.78,8.78,0,0,1,6.56,2.73,9,9,0,0,1,2.75,6.57V105a1.38,1.38,0,0,1-.53,1.19,1.61,1.61,0,0,1-1.12.45,1.63,1.63,0,0,1-1.14-.47,1.46,1.46,0,0,1-.49-1.17V93.12a6.06,6.06,0,0,0-12.12,0V105a1.63,1.63,0,0,1-.47,1.17,1.49,1.49,0,0,1-1.15.47A1.58,1.58,0,0,1,239.8,105V93.12a6.05,6.05,0,0,0-12.1,0V105a1.6,1.6,0,0,1-1.61,1.61,1.51,1.51,0,0,1-1.21-.49,1.73,1.73,0,0,1-.44-1.14V93a8.79,8.79,0,0,1,2.77-6.49,9.36,9.36,0,0,1,11.85-1,11.69,11.69,0,0,1,1.33,1.09,7.25,7.25,0,0,1,1.08,1.26,10.77,10.77,0,0,1,1.09-1.32,8.08,8.08,0,0,1,1.3-1,9.33,9.33,0,0,1,5.28-1.64Z"/><path class="cls-1" d="M303.75,105a1.64,1.64,0,0,1-1.64,1.64,1.54,1.54,0,0,1-1.67-1.64v-1.73c-.31.29-.67.6-1.07.91a11.86,11.86,0,0,1-1.07.76,11.35,11.35,0,0,1-2.82,1.28,10.62,10.62,0,0,1-3.11.42,11.39,11.39,0,1,1,11.42-11.4V105Zm-5.63-4a7.79,7.79,0,0,0,2.36-5.7,8,8,0,0,0-2.36-5.77,7.86,7.86,0,0,0-5.75-2.35,7.71,7.71,0,0,0-5.72,2.35,7.92,7.92,0,0,0-2.37,5.74,8.12,8.12,0,0,0,13.84,5.73Z"/><path class="cls-1" d="M338,103.25a1.66,1.66,0,0,1,1.12.5,1.63,1.63,0,0,1,0,2.37,1.5,1.5,0,0,1-1.16.47h-.11a11.73,11.73,0,0,1-11.72-11.53V76.63a1.65,1.65,0,0,1,.49-1.21,1.7,1.7,0,0,1,1.22-.49,1.68,1.68,0,0,1,1.17.49,1.76,1.76,0,0,1,.5,1.21V94.81a8.3,8.3,0,0,0,.6,3.18,9.09,9.09,0,0,0,1.72,2.68l.32.27a1.38,1.38,0,0,1,.27.27,1.17,1.17,0,0,0,.33.28.27.27,0,0,1,0,.07,1.17,1.17,0,0,0,.21.14,1.4,1.4,0,0,0,.2.16l.15.09.34.19a2.13,2.13,0,0,1,.26.21l.61.2.6.2.79.18.73.2,1.3.09Z"/><path class="cls-1" d="M383.58,105a1.51,1.51,0,0,1-.47,1.15,1.55,1.55,0,0,1-1.16.49,1.82,1.82,0,0,1-1.23-.44,1.78,1.78,0,0,1-.44-1.2v-1.73c-.32.29-.68.6-1.08.91a10.59,10.59,0,0,1-1.07.76,11.51,11.51,0,0,1-2.82,1.28,10.51,10.51,0,0,1-3.1.42,11.39,11.39,0,1,1,11.41-11.4V105Zm-5.63-4a7.8,7.8,0,0,0,2.37-5.7A8,8,0,0,0,378,89.45a7.86,7.86,0,0,0-5.74-2.35,7.68,7.68,0,0,0-5.72,2.35,7.88,7.88,0,0,0-2.37,5.74A8.11,8.11,0,0,0,378,100.92Z"/><path class="cls-1" d="M428.06,84.9a1.37,1.37,0,0,1,.12.57,1,1,0,0,1,0,.3.52.52,0,0,0-.07.15.5.5,0,0,0-.07.13.69.69,0,0,1-.06.14l-13.84,27.87a1.8,1.8,0,0,1-.62.67,1.59,1.59,0,0,1-.9.27,1.48,1.48,0,0,1-.71-.16,1.34,1.34,0,0,1-.56-.44,3.29,3.29,0,0,1-.34-.61,4.24,4.24,0,0,1,0-.53,1.65,1.65,0,0,1,.18-.74l3.15-6.32-3.55-8L408,92.07,405.29,86v-.13a2.15,2.15,0,0,1-.05-.34v-.27a.07.07,0,0,1,0-.07,1.79,1.79,0,0,1,1-1.25,1.91,1.91,0,0,1,.66-.14.17.17,0,0,1,.11,0l.18.06s.09,0,.2,0a1.75,1.75,0,0,1,.59.41,2.73,2.73,0,0,1,.4.5l1.83,4.1L412,92.75,413,95.09l1,2.27,1.05,2.37,1.17,2.57,2.92-5.91,3-6,1.39-2.81,1.43-2.91a1.48,1.48,0,0,1,.41-.53,1.76,1.76,0,0,1,.59-.34h0a1.4,1.4,0,0,1,.29-.09,1.57,1.57,0,0,1,.29,0,2.75,2.75,0,0,1,.39,0,1.49,1.49,0,0,1,.39.13,2,2,0,0,1,.83,1h0Z"/><path class="cls-1" d="M472,105a1.55,1.55,0,0,1-.47,1.15,1.57,1.57,0,0,1-1.17.49,1.82,1.82,0,0,1-1.23-.44,1.78,1.78,0,0,1-.44-1.2v-1.73a13.51,13.51,0,0,1-1.08.91,9.55,9.55,0,0,1-1.06.76,11.51,11.51,0,0,1-2.82,1.28,10.58,10.58,0,0,1-3.11.42A11.38,11.38,0,1,1,472,95.19V105Zm-5.63-4a7.79,7.79,0,0,0,2.36-5.7,8,8,0,0,0-2.36-5.77,7.86,7.86,0,0,0-5.75-2.35,7.73,7.73,0,0,0-5.73,2.35,8,8,0,0,0-2.36,5.74,8.06,8.06,0,0,0,8.09,8.09A7.76,7.76,0,0,0,466.37,100.92Z"/><path class="cls-1" d="M58.12,0A59.91,59.91,0,0,0,9.47,25a61.68,61.68,0,0,0-4,6.32A47.53,47.53,0,1,0,95.06,53.44H52L38.92,67.06H81A36.1,36.1,0,0,1,11.43,53.58a35.6,35.6,0,0,1,.79-7.5.22.22,0,0,1,0-.08c1.14-6.2,4.8-12,6.1-13.9a48.4,48.4,0,0,1,87.43,27.14c0,.5,0,1,0,1.49A48.28,48.28,0,0,1,89.94,96.56a55.41,55.41,0,0,1-79.22,0A59.9,59.9,0,1,0,58.12,0Z"/><path class="cls-1" d="M70.82,46.26C74,45.12,79,40.37,80.5,37.42s6.56,4.66,9.79,8a12.27,12.27,0,0,0,6.84,3.71s-4.84-2.38-9.4-9.21-5.8-7.42-8-5.32a32.93,32.93,0,0,1-5.71,4S66,28.87,64.16,26.31,59.42,19.38,56,23.18s-14.83,15.1-14.83,15.1c-.75-.86-1.9-3.61-5-1.05S21.46,51.15,21.46,51.15c-10,10.83,4.33-3.28,7.36-3.28s3.81-1,5.9-5.79,5.13-4.37,5.79,4.18S49.44,35.53,51,38.61s3.14-8.69,5.65-12.3,4.23-1.14,5.46,0S70.91,34.8,71.67,39,67.59,47.4,70.82,46.26Z"/><path class="cls-1" d="M62.44,34.29c3,3.05,2.34,6.45,3.25,5.7s2.79-3.4,1.36-5.29-5.51-6.11-5.51-6.11C62.67,33.12,59.5,31.23,62.44,34.29Z"/></g></g></svg>