<svg width="66" height="66" viewBox="0 0 66 66" fill="none" xmlns="http://www.w3.org/2000/svg">
<g filter="url(#filter0_d_0_3808)">
<rect x="4" y="2" width="58" height="58" rx="5" fill="#5055B4"/>
</g>
<path fill-rule="evenodd" clip-rule="evenodd" d="M45.516 29.953C45.516 24.453 40.04 20 33.258 20C26.476 20 21 24.452 21 29.953C21 33.271 22.986 36.193 26.05 38.006C25.71 40.558 24.235 42.061 24.206 42.09C24.066 42.23 24.036 42.458 24.093 42.657C24.1773 42.8476 24.3666 42.9701 24.575 42.969C27.525 42.969 29.91 41.039 31.187 39.763C31.839 39.849 32.549 39.905 33.257 39.905C40.04 39.905 45.517 35.453 45.517 29.952L45.516 29.953Z" fill="white"/>
<defs>
<filter id="filter0_d_0_3808" x="0" y="0" width="66" height="66" filterUnits="userSpaceOnUse" color-interpolation-filters="sRGB">
<feFlood flood-opacity="0" result="BackgroundImageFix"/>
<feColorMatrix in="SourceAlpha" type="matrix" values="0 0 0 0 0 0 0 0 0 0 0 0 0 0 0 0 0 0 127 0" result="hardAlpha"/>
<feOffset dy="2"/>
<feGaussianBlur stdDeviation="2"/>
<feColorMatrix type="matrix" values="0 0 0 0 0 0 0 0 0 0 0 0 0 0 0 0 0 0 0.25 0"/>
<feBlend mode="normal" in2="BackgroundImageFix" result="effect1_dropShadow_0_3808"/>
<feBlend mode="normal" in="SourceGraphic" in2="effect1_dropShadow_0_3808" result="shape"/>
</filter>
</defs>
</svg>
