<svg width="16" height="16" viewBox="0 0 16 16" fill="none" xmlns="http://www.w3.org/2000/svg">
<path fill-rule="evenodd" clip-rule="evenodd" d="M0 8C0 3.58171 3.58171 0 8 0C12.4183 0 16 3.58171 16 8C16 12.4183 12.4183 16 8 16C3.58171 16 0 12.4183 0 8ZM6.52232 4.90625C6.29889 4.68282 6.00657 4.57143 5.71429 4.57143C5.422 4.57143 5.12968 4.68282 4.90625 4.90625C4.45939 5.35311 4.45939 6.07546 4.90625 6.52232L6.38393 8L4.90625 9.47768C4.45939 9.92454 4.45939 10.6469 4.90625 11.0938C5.12911 11.3166 5.42171 11.4286 5.71429 11.4286C6.00686 11.4286 6.29946 11.3166 6.52232 11.0938L8 9.61607L9.47768 11.0938C9.70054 11.3166 9.99314 11.4286 10.2857 11.4286C10.5783 11.4286 10.8709 11.3166 11.0938 11.0938C11.5406 10.6469 11.5406 9.92454 11.0938 9.47768L9.61607 8L11.0938 6.52232C11.5406 6.07546 11.5406 5.35311 11.0938 4.90625C10.6469 4.45939 9.92454 4.45939 9.47768 4.90625L8 6.38393L6.52232 4.90625Z" fill="#FF6F56"/>
</svg>
