<svg width="25" height="25" viewBox="0 0 25 25" fill="none" xmlns="http://www.w3.org/2000/svg">
<path d="M23.75 2.5H6.25C5.91848 2.5 5.60054 2.6317 5.36612 2.86612C5.1317 3.10054 5 3.41848 5 3.75V7.5H11.25V5H18.75V17.5H23.75C24.0815 17.5 24.3995 17.3683 24.6339 17.1339C24.8683 16.8995 25 16.5815 25 16.25V3.75C25 3.41848 24.8683 3.10054 24.6339 2.86612C24.3995 2.6317 24.0815 2.5 23.75 2.5V2.5ZM9.0625 6.52344C9.0625 6.61668 9.02546 6.7061 8.95953 6.77203C8.8936 6.83796 8.80418 6.875 8.71094 6.875H7.53906C7.44582 6.875 7.3564 6.83796 7.29047 6.77203C7.22454 6.7061 7.1875 6.61668 7.1875 6.52344V5.35156C7.1875 5.25832 7.22454 5.1689 7.29047 5.10297C7.3564 5.03704 7.44582 5 7.53906 5H8.71094C8.80418 5 8.8936 5.03704 8.95953 5.10297C9.02546 5.1689 9.0625 5.25832 9.0625 5.35156V6.52344ZM22.8125 14.6484C22.8125 14.7417 22.7755 14.8311 22.7095 14.897C22.6436 14.963 22.5542 15 22.4609 15H21.2891C21.1958 15 21.1064 14.963 21.0405 14.897C20.9745 14.8311 20.9375 14.7417 20.9375 14.6484V13.4766C20.9375 13.3833 20.9745 13.2939 21.0405 13.228C21.1064 13.162 21.1958 13.125 21.2891 13.125H22.4609C22.5542 13.125 22.6436 13.162 22.7095 13.228C22.7755 13.2939 22.8125 13.3833 22.8125 13.4766V14.6484ZM22.8125 10.5859C22.8125 10.6792 22.7755 10.7686 22.7095 10.8345C22.6436 10.9005 22.5542 10.9375 22.4609 10.9375H21.2891C21.1958 10.9375 21.1064 10.9005 21.0405 10.8345C20.9745 10.7686 20.9375 10.6792 20.9375 10.5859V9.41406C20.9375 9.32082 20.9745 9.2314 21.0405 9.16547C21.1064 9.09954 21.1958 9.0625 21.2891 9.0625H22.4609C22.5542 9.0625 22.6436 9.09954 22.7095 9.16547C22.7755 9.2314 22.8125 9.32082 22.8125 9.41406V10.5859ZM22.8125 6.52344C22.8125 6.61668 22.7755 6.7061 22.7095 6.77203C22.6436 6.83796 22.5542 6.875 22.4609 6.875H21.2891C21.1958 6.875 21.1064 6.83796 21.0405 6.77203C20.9745 6.7061 20.9375 6.61668 20.9375 6.52344V5.35156C20.9375 5.25832 20.9745 5.1689 21.0405 5.10297C21.1064 5.03704 21.1958 5 21.2891 5H22.4609C22.5542 5 22.6436 5.03704 22.7095 5.10297C22.7755 5.1689 22.8125 5.25832 22.8125 5.35156V6.52344ZM16.25 8.75H1.25C0.918479 8.75 0.600537 8.8817 0.366117 9.11612C0.131696 9.35054 0 9.66848 0 10L0 21.25C0 21.5815 0.131696 21.8995 0.366117 22.1339C0.600537 22.3683 0.918479 22.5 1.25 22.5H16.25C16.5815 22.5 16.8995 22.3683 17.1339 22.1339C17.3683 21.8995 17.5 21.5815 17.5 21.25V10C17.5 9.66848 17.3683 9.35054 17.1339 9.11612C16.8995 8.8817 16.5815 8.75 16.25 8.75ZM3.75 11.25C3.99723 11.25 4.2389 11.3233 4.44446 11.4607C4.65002 11.598 4.81024 11.7932 4.90485 12.0216C4.99946 12.2501 5.02421 12.5014 4.97598 12.7439C4.92775 12.9863 4.8087 13.2091 4.63388 13.3839C4.45907 13.5587 4.23634 13.6778 3.99386 13.726C3.75139 13.7742 3.50005 13.7495 3.27165 13.6548C3.04324 13.5602 2.84801 13.4 2.71066 13.1945C2.57331 12.9889 2.5 12.7472 2.5 12.5C2.5 12.1685 2.6317 11.8505 2.86612 11.6161C3.10054 11.3817 3.41848 11.25 3.75 11.25V11.25ZM15 20H2.5V18.75L5 16.25L6.25 17.5L11.25 12.5L15 16.25V20Z" fill="#C52055"/>
</svg>
