<svg width="27" height="24" viewBox="0 0 27 24" fill="none" xmlns="http://www.w3.org/2000/svg">
<path fill-rule="evenodd" clip-rule="evenodd" d="M7.10526 0C6.71392 0 6.39474 0.308036 6.39474 0.685714V1.37143H5.68421C5.29287 1.37143 4.97368 1.67946 4.97368 2.05714C4.97368 2.43482 5.29287 2.74286 5.68421 2.74286H6.39474V3.42857C6.39474 3.80625 6.71392 4.11429 7.10526 4.11429C7.49661 4.11429 7.81579 3.80625 7.81579 3.42857V2.74286H8.52632C8.91766 2.74286 9.23684 2.43482 9.23684 2.05714C9.23684 1.67946 8.91766 1.37143 8.52632 1.37143H7.81579V0.685714C7.81579 0.308036 7.49661 0 7.10526 0ZM15.8536 4.77857L14.9211 4.90714C10.0584 5.57946 6.39474 9.65893 6.39474 14.4C6.39474 19.6929 10.8577 24 16.3421 24C21.252 24 25.4818 20.4643 26.1785 15.7714L26.3117 14.8714L25.3791 15C24.9101 15.0643 24.5215 15.0857 24.1579 15.0857C19.4562 15.0857 15.6316 11.3946 15.6316 6.85714C15.6316 6.50625 15.6538 6.12857 15.7204 5.67857L15.8536 4.77857ZM0.710526 8.91429C0.710526 8.53661 1.02971 8.22857 1.42105 8.22857C1.8124 8.22857 2.13158 8.53661 2.13158 8.91429C2.52292 8.91429 2.84211 9.22232 2.84211 9.6C2.84211 9.97768 2.52292 10.2857 2.13158 10.2857C2.13158 10.6634 1.8124 10.9714 1.42105 10.9714C1.02971 10.9714 0.710526 10.6634 0.710526 10.2857C0.319182 10.2857 0 9.97768 0 9.6C0 9.22232 0.319182 8.91429 0.710526 8.91429Z" fill="white"/>
</svg>
