<svg width="26" height="28" viewBox="0 0 26 28" fill="none" xmlns="http://www.w3.org/2000/svg">
<path fill-rule="evenodd" clip-rule="evenodd" d="M13 0.765625C5.84868 0.765625 0 6.27917 0 13.1167C0 16.8552 1.77072 20.1741 4.52174 22.4338V27.5682L5.3519 27.1193L9.43207 24.9651C10.5713 25.2748 11.757 25.4678 13 25.4678C20.1513 25.4678 26 19.9542 26 13.1167C26 6.27917 20.1513 0.765625 13 0.765625ZM13 1.91456C19.5817 1.91456 24.8696 6.94565 24.8696 13.1167C24.8696 19.2877 19.5817 24.3188 13 24.3188C11.7768 24.3188 10.5934 24.1393 9.48505 23.8162L9.2731 23.7623L9.0788 23.87L5.65217 25.6832V21.9132L5.44022 21.7517C2.80401 19.6894 1.13043 16.5859 1.13043 13.1167C1.13043 6.94565 6.41831 1.91456 13 1.91456ZM4.91033 17.12L11.7106 9.79555L15.0489 13.1885L21.0014 9.79555L14.2894 17.1918L11.0217 13.6373L4.91033 17.12Z" fill="#181B1A"/>
</svg>
