<svg width="26" height="27" viewBox="0 0 26 27" fill="none" xmlns="http://www.w3.org/2000/svg">
<path fill-rule="evenodd" clip-rule="evenodd" d="M7.68182 0.765625C3.44647 0.765625 0 4.21209 0 8.44744V19.0838C0 23.3192 3.44647 26.7656 7.68182 26.7656H18.3182C22.5535 26.7656 26 23.3192 26 19.0838V8.44744C26 4.21209 22.5535 0.765625 18.3182 0.765625H7.68182ZM7.68182 1.94744H18.3182C21.9147 1.94744 24.8182 4.85088 24.8182 8.44744V19.0838C24.8182 22.6804 21.9147 25.5838 18.3182 25.5838H7.68182C4.08526 25.5838 1.18182 22.6804 1.18182 19.0838V8.44744C1.18182 4.85088 4.08526 1.94744 7.68182 1.94744ZM18.9091 6.67472C18.9091 6.02202 19.4382 5.4929 20.0909 5.4929C20.7436 5.4929 21.2727 6.02202 21.2727 6.67472C21.2727 7.32742 20.7436 7.85653 20.0909 7.85653C19.4382 7.85653 18.9091 7.32742 18.9091 6.67472ZM13 7.26562C9.41715 7.26562 6.5 10.1828 6.5 13.7656C6.5 17.3485 9.41715 20.2656 13 20.2656C16.5829 20.2656 19.5 17.3485 19.5 13.7656C19.5 10.1828 16.5829 7.26562 13 7.26562ZM18.3182 13.7656C18.3182 10.8215 15.9441 8.44744 13 8.44744C10.0559 8.44744 7.68182 10.8215 7.68182 13.7656C7.68182 16.7098 10.0559 19.0838 13 19.0838C15.9441 19.0838 18.3182 16.7098 18.3182 13.7656Z" fill="#181B1A"/>
</svg>
