<svg width="26" height="27" viewBox="0 0 26 27" fill="none" xmlns="http://www.w3.org/2000/svg">
<path fill-rule="evenodd" clip-rule="evenodd" d="M3.09524 0.765625C1.39316 0.765625 0 2.12638 0 3.78888V23.1377C0 24.8002 1.39316 26.161 3.09524 26.161H13.5151C13.5819 26.1718 13.6501 26.1718 13.717 26.161H17.2294C17.2962 26.1718 17.3644 26.1718 17.4313 26.161H22.9048C24.6068 26.161 26 24.8002 26 23.1377V3.78888C26 2.12638 24.6068 0.765625 22.9048 0.765625H3.09524ZM3.09524 1.97493H22.9048C23.9376 1.97493 24.7619 2.78003 24.7619 3.78888V23.1377C24.7619 24.1466 23.9376 24.9517 22.9048 24.9517H17.9524V16.4866H20.3173L21.1842 12.254H17.9524V11.0447C17.9524 10.7076 17.9852 10.6813 18.1011 10.6077C18.217 10.5342 18.575 10.44 19.1905 10.44H21.0476V7.03534L20.6946 6.87118C20.6946 6.87118 19.2726 6.20749 17.3333 6.20749C15.9405 6.20749 14.7962 6.74953 14.064 7.64353C13.3318 8.53754 13 9.73462 13 11.0447V12.254H11.1429V16.4866H13V24.9517H3.09524C2.06237 24.9517 1.2381 24.1466 1.2381 23.1377V3.78888C1.2381 2.78003 2.06237 1.97493 3.09524 1.97493ZM19.8095 7.84075C19.4303 7.69399 18.6204 7.41679 17.3333 7.41679C16.25 7.41679 15.5371 7.78172 15.0312 8.39935C14.5254 9.01697 14.2381 9.93617 14.2381 11.0447V13.4633H12.381V15.2773H14.2381V24.9517H16.7143V15.2773H19.3017L19.6729 13.4633H16.7143V11.0447C16.7143 10.4772 16.9457 9.89829 17.4264 9.5933C17.9072 9.2883 18.4781 9.23074 19.1905 9.23074H19.8095V7.84075Z" fill="#181B1A"/>
</svg>
