<svg width="26" height="21" viewBox="0 0 26 21" fill="none" xmlns="http://www.w3.org/2000/svg">
<path fill-rule="evenodd" clip-rule="evenodd" d="M12.1875 5.42188C12.1875 2.43164 14.6191 0 17.6094 0C19.0371 0 20.3125 0.609375 21.2813 1.51562C22.2793 1.29883 23.2246 0.943359 24.0781 0.4375C24.2559 0.330078 24.4824 0.345703 24.6445 0.472656C24.8066 0.601562 24.875 0.818359 24.8125 1.01562C24.6289 1.5918 24.3242 2.10352 23.9688 2.57812C24.086 2.53819 24.2092 2.51341 24.3321 2.48867C24.4919 2.45654 24.6512 2.42448 24.7969 2.35938C25 2.26367 25.2441 2.31641 25.3887 2.48828C25.5352 2.66016 25.5488 2.9082 25.4219 3.09375C24.7813 4.05469 23.9629 4.87695 23.0469 5.57812C23.0484 5.63424 23.0512 5.69004 23.054 5.7459C23.0583 5.83004 23.0625 5.91431 23.0625 6C23.0625 9.37891 21.7832 12.9961 19.3281 15.7812C16.873 18.5664 13.2129 20.5156 8.54688 20.5156C5.66797 20.5156 2.99024 19.666 0.734376 18.2188C0.533204 18.0957 0.445314 17.8477 0.525392 17.625C0.603517 17.4023 0.828126 17.2656 1.0625 17.2969C1.42578 17.3398 1.79102 17.3594 2.17188 17.3594C3.93164 17.3594 5.5625 16.8672 6.96875 16.0312C5.20313 15.5469 3.77735 14.2207 3.21875 12.4844C3.16797 12.3184 3.20508 12.1367 3.32031 12.0059C3.43555 11.875 3.60938 11.8145 3.78125 11.8438C3.78993 11.8459 3.79861 11.8451 3.80729 11.8442C3.81424 11.8436 3.82118 11.8429 3.82813 11.8438C2.42188 10.8633 1.46875 9.26367 1.46875 7.42188V7.35938C1.4707 7.18555 1.5625 7.02344 1.71289 6.93359C1.86328 6.84375 2.04883 6.83984 2.20313 6.92188C2.27559 6.96278 2.35504 6.9904 2.43479 7.01812C2.48832 7.03672 2.54198 7.05538 2.59375 7.07812C1.92969 6.17578 1.5 5.07617 1.5 3.875C1.5 2.88281 1.76758 1.95898 2.23438 1.15625C2.31641 1.01172 2.46485 0.916016 2.63086 0.904297C2.79883 0.892578 2.95899 0.962891 3.0625 1.09375C5.2832 3.81836 8.55274 5.59961 12.25 5.95312C12.2434 5.88718 12.233 5.82123 12.2225 5.75508C12.205 5.6449 12.1875 5.53415 12.1875 5.42188ZM20.8438 2.40625C20.0371 1.54492 18.8848 1 17.6094 1C15.1602 1 13.1875 2.97266 13.1875 5.42188C13.1875 5.76953 13.2363 6.11328 13.3125 6.4375C13.3477 6.58984 13.3086 6.75 13.207 6.87109C13.1055 6.99023 12.9531 7.05469 12.7969 7.04688C8.84375 6.84766 5.34375 5.02539 2.84375 2.28125C2.64844 2.78125 2.5 3.30469 2.5 3.875C2.5 5.41406 3.28125 6.76758 4.46875 7.5625C4.66211 7.68359 4.74805 7.92188 4.67774 8.13867C4.60742 8.35547 4.40039 8.49805 4.17188 8.48438C3.61328 8.4668 3.09766 8.33008 2.59375 8.15625C2.90235 9.95703 4.23633 11.4062 6.01563 11.7656C6.23828 11.8145 6.40039 12.0098 6.4082 12.2383C6.41602 12.4668 6.26563 12.6699 6.04688 12.7344C5.5918 12.8594 5.10352 12.9219 4.60938 12.9219H4.53125C5.26758 14.2773 6.64844 15.2363 8.29688 15.2656C8.50586 15.2715 8.68945 15.4082 8.75586 15.6074C8.82227 15.8066 8.75781 16.0254 8.59375 16.1562C7.02344 17.3887 5.07813 18.1348 2.96875 18.2969C4.66992 19.0742 6.55274 19.5156 8.54688 19.5156C12.9375 19.5156 16.293 17.7012 18.5781 15.1094C20.8633 12.5176 22.0625 9.125 22.0625 6C22.0625 5.79684 22.0548 5.59751 22.0471 5.39632L22.0469 5.39062C22.0352 5.21875 22.1113 5.05469 22.25 4.95312C22.7598 4.58398 23.2285 4.16602 23.6563 3.70312C23.4895 3.74756 23.3265 3.80132 23.1637 3.85503C22.8613 3.95479 22.5594 4.05439 22.2344 4.09375C21.9863 4.14844 21.7363 4.00977 21.6543 3.77148C21.5703 3.53125 21.6777 3.26758 21.9063 3.15625C22.4102 2.85352 22.8398 2.45312 23.1875 1.98438C22.584 2.22852 21.9648 2.41797 21.3125 2.54688C21.1426 2.58398 20.9648 2.53125 20.8438 2.40625Z" fill="#181B1A"/>
</svg>
