<svg width="26" height="27" viewBox="0 0 26 27" fill="none" xmlns="http://www.w3.org/2000/svg">
<path fill-rule="evenodd" clip-rule="evenodd" d="M0 13.7656C0 6.59275 5.82713 0.765625 13 0.765625C20.1729 0.765625 26 6.59275 26 13.7656C26 20.9385 20.1729 26.7656 13 26.7656C10.7915 26.7656 8.72392 26.1851 6.90183 25.2124L0.701002 26.7491C0.505791 26.7973 0.299642 26.7382 0.159628 26.5939C0.0196147 26.4496 -0.0331829 26.2417 0.0209749 26.0481L1.68682 20.1011C0.632302 18.2229 0 16.0712 0 13.7656ZM24.8696 13.7656C24.8696 7.20371 19.5619 1.89606 13 1.89606C6.43809 1.89606 1.13043 7.20371 1.13043 13.7656C1.13043 15.9644 1.72995 18.0181 2.77089 19.7832C2.84896 19.9162 2.86929 20.0753 2.82719 20.2237L1.37109 25.4188L6.80138 24.0731C6.94066 24.0386 7.08787 24.0583 7.21315 24.1283C8.92598 25.0867 10.8963 25.6352 13 25.6352C19.5619 25.6352 24.8696 20.3275 24.8696 13.7656ZM8.27624 6.98302C7.91391 6.98302 7.39646 7.11782 6.97138 7.57583C6.95926 7.5889 6.94531 7.60368 6.92973 7.62018C6.61741 7.95117 5.65217 8.97407 5.65217 10.7099C5.65217 12.536 6.86939 14.1214 7.10554 14.429L7.12925 14.46H7.13035V14.4611C7.11524 14.4412 7.33258 14.756 7.62271 15.1334C7.91283 15.5108 8.31853 16.0065 8.82821 16.5431C9.84756 17.6164 11.2808 18.8568 13.0596 19.6154C13.8788 19.9642 14.5251 20.1749 15.0147 20.3286C15.9221 20.6135 16.7486 20.5702 17.3694 20.4787C17.8341 20.4103 18.3452 20.1871 18.8509 19.8671C19.3566 19.5471 19.8522 19.1492 20.0707 18.5446C20.2273 18.1112 20.3069 17.7106 20.3357 17.381C20.3501 17.2162 20.3519 17.0708 20.3412 16.9361C20.3398 16.9181 20.3387 16.9006 20.3377 16.8834L20.3377 16.8832C20.3311 16.7719 20.3251 16.6707 20.2165 16.4924C20.0166 16.1642 19.7967 16.0788 19.5662 15.9893L19.5662 15.9893C19.4932 15.9609 19.4191 15.9321 19.3443 15.8951C19.1716 15.8096 18.6797 15.5694 18.1863 15.3343L18.0177 15.2539L18.0177 15.2539C17.5967 15.0528 17.2363 14.8806 17.004 14.7978L16.9645 14.7835C16.8059 14.7254 16.6125 14.6547 16.3427 14.6852C16.0502 14.7183 15.7613 14.9294 15.5932 15.1787C15.4337 15.415 14.792 16.1725 14.5963 16.3952C14.5959 16.3949 14.596 16.3949 14.5961 16.3949C14.5967 16.395 14.5976 16.395 14.5334 16.3632C14.4421 16.318 14.3432 16.2754 14.2319 16.2275L14.2319 16.2275C14.048 16.1483 13.8303 16.0545 13.5575 15.9106C13.1195 15.6796 12.5717 15.3384 11.9722 14.81V14.8088C11.08 14.0233 10.455 13.0371 10.2578 12.7058C10.2637 12.6988 10.2641 12.6987 10.2651 12.6983C10.2664 12.6978 10.2687 12.6969 10.2843 12.6816L10.2854 12.6805C10.4247 12.5432 10.5531 12.3876 10.6689 12.2472L10.6689 12.2472L10.6689 12.2471C10.7206 12.1844 10.7698 12.1247 10.8164 12.0711C11.0037 11.8553 11.0994 11.6618 11.189 11.4807C11.2017 11.455 11.2143 11.4295 11.2271 11.4043C11.4309 10.9997 11.3174 10.5545 11.1995 10.3202V10.3191C11.2023 10.3248 11.1953 10.309 11.1817 10.2781L11.1817 10.2781C11.1565 10.221 11.1085 10.1124 11.0582 9.99346C10.9886 9.8292 10.902 9.62138 10.8088 9.39766L10.7756 9.31785L10.5797 8.84745C10.4295 8.48655 10.2851 8.13948 10.1872 7.90701V7.90591C10.0216 7.51301 9.7977 7.22996 9.50492 7.09341C9.2375 6.96868 8.99853 6.99027 8.95118 6.99455C8.94669 6.99495 8.94393 6.9952 8.94302 6.99516H8.94192C8.73299 6.98552 8.50372 6.98302 8.27624 6.98302ZM8.88893 8.12449C8.70899 8.11611 8.49415 8.11345 8.27624 8.11345C8.19317 8.11345 7.98806 8.14312 7.80044 8.34528C7.77018 8.37788 7.73775 8.41172 7.70373 8.44722C7.33596 8.83097 6.78261 9.40836 6.78261 10.7099C6.78261 12.0535 7.85494 13.5451 8.03006 13.7767L8.03116 13.7778C8.06667 13.8245 8.10472 13.8781 8.15151 13.9441C8.23475 14.0614 8.34565 14.2178 8.51911 14.4434C8.79058 14.7966 9.17216 15.2634 9.64844 15.7649C10.601 16.7678 11.9345 17.9064 13.5034 18.5755C14.277 18.9049 14.8745 19.0996 15.3536 19.25C16.0446 19.467 16.6739 19.4385 17.2038 19.3604C17.3801 19.3344 17.856 19.1597 18.247 18.9122C18.6381 18.6647 18.9481 18.3251 19.0076 18.1604C19.1292 17.824 19.1898 17.5098 19.2097 17.2828C19.2168 17.2009 19.2149 17.147 19.213 17.0973C19.1983 17.0971 19.1619 17.077 19.098 17.0417C19.0385 17.0089 18.955 16.9628 18.8432 16.9074C18.6824 16.8279 18.1879 16.5866 17.7006 16.3544C17.2133 16.1222 16.6668 15.8775 16.6231 15.862H16.622V15.8609C16.5506 15.8352 16.5348 15.8306 16.5263 15.8281C16.5234 15.8273 16.5213 15.8267 16.5183 15.8256C16.2307 16.2473 15.6314 16.9316 15.4298 17.1602L15.4287 17.1613C15.2771 17.3327 15.0391 17.5002 14.763 17.5334C14.4869 17.5665 14.2494 17.483 14.0322 17.3755C14.0083 17.3637 13.9627 17.3444 13.8994 17.3176C13.7206 17.2419 13.4006 17.1064 13.0298 16.9108C12.5278 16.6459 11.8994 16.2524 11.2249 15.6578C10.1538 14.7148 9.46458 13.593 9.25543 13.2379C9.09835 12.9713 9.05265 12.614 9.15056 12.3537C9.23894 12.1187 9.37538 11.9876 9.46487 11.9016C9.47437 11.8925 9.48335 11.8839 9.49168 11.8757C9.55352 11.8148 9.64963 11.7001 9.75777 11.5711C9.82308 11.4932 9.89278 11.41 9.96196 11.3303C10.0595 11.2179 10.0888 11.1584 10.1595 11.0146C10.1762 10.9805 10.1953 10.9418 10.2181 10.8965C10.2222 10.8882 10.2256 10.8857 10.2277 10.8852C10.2292 10.8861 10.2298 10.8859 10.2298 10.8856C10.2297 10.8853 10.229 10.8848 10.2277 10.8852C10.2234 10.8825 10.2121 10.8708 10.1905 10.828L10.1894 10.8269V10.8258C10.1462 10.7395 10.1082 10.6494 10.0473 10.5052C10.0378 10.4828 10.0278 10.4591 10.0172 10.4339C9.95041 10.2762 9.86951 10.0821 9.78232 9.87275C9.76586 9.83326 9.74919 9.79323 9.73234 9.7528C9.67655 9.61896 9.61903 9.48082 9.56204 9.34395C9.40216 8.95998 9.24647 8.58606 9.14504 8.34528C9.09205 8.21949 9.0533 8.15844 9.0325 8.13099C9.04335 8.13105 9.04786 8.13048 9.04809 8.12916C9.04843 8.12719 9.03908 8.12354 9.02692 8.11787C9.01895 8.11415 9.01511 8.11098 9.01511 8.11099C9.01511 8.11099 9.02111 8.11595 9.0325 8.13099C9.01196 8.13087 8.9687 8.12847 8.88893 8.12449Z" fill="#181B1A"/>
</svg>
