<svg width="16" height="24" viewBox="0 0 16 24" fill="none" xmlns="http://www.w3.org/2000/svg">
<path fill-rule="evenodd" clip-rule="evenodd" d="M16 8C16 3.57188 12.4281 0 8 0C3.57188 0 0 3.57188 0 8C0 9.5375 0.434375 10.7844 1.125 12C1.22188 12.0969 1.29062 12.2188 1.325 12.35C1.32969 12.3578 1.33359 12.3664 1.3375 12.375C1.34141 12.3836 1.34531 12.3922 1.35 12.4V12.425C1.78365 13.1259 2.31014 13.8221 2.87545 14.5696C2.95786 14.6786 3.0411 14.7887 3.125 14.9C4.82188 17.1469 6.81875 19.8594 8 23.95C9.18125 19.8594 11.1781 17.1469 12.875 14.9C14.6469 12.5531 16 10.7313 16 8ZM8 4.8C6.24062 4.8 4.8 6.24062 4.8 8C4.8 9.75938 6.24062 11.2 8 11.2C9.75938 11.2 11.2 9.75938 11.2 8C11.2 6.24062 9.75938 4.8 8 4.8ZM8 6.4C8.89375 6.4 9.6 7.10625 9.6 8C9.6 8.89375 8.89375 9.6 8 9.6C7.10625 9.6 6.4 8.89375 6.4 8C6.4 7.10625 7.10625 6.4 8 6.4Z" fill="white"/>
</svg>
