<svg width="18" height="18" viewBox="0 0 18 18" fill="none" xmlns="http://www.w3.org/2000/svg">
<path d="M17.0232 12.488C16.3932 12.473 15.6002 12.436 15.0992 12.348C14.5572 12.252 13.9052 12.066 13.4462 11.923C13.0862 11.811 12.6942 11.91 12.4272 12.176L10.2102 14.38C8.67824 13.573 7.45124 12.633 6.41224 11.588C5.36724 10.549 4.42724 9.322 3.62024 7.79L5.82424 5.572C6.09024 5.305 6.18924 4.913 6.07724 4.553C5.93524 4.095 5.74824 3.443 5.65324 2.901C5.56424 2.4 5.52824 1.607 5.51224 0.977C5.49924 0.432 5.05524 0 4.51024 0H1.00024C0.562244 0 0.000244141 0.328 0.000244141 1C0.000244141 5.539 1.84024 9.874 4.96624 13.034C8.12624 16.16 12.4612 18 17.0002 18C17.6722 18 18.0002 17.438 18.0002 17V13.49C18.0002 12.945 17.5682 12.501 17.0232 12.488Z" fill="white"/>
</svg>
