<svg width="26" height="25" viewBox="0 0 26 25" fill="none" xmlns="http://www.w3.org/2000/svg">
<path fill-rule="evenodd" clip-rule="evenodd" d="M0 3.62277C0 2.05357 1.27395 0.765625 2.82609 0.765625H23.1739C24.7261 0.765625 26 2.05357 26 3.62277V17.3371C26 18.9062 24.7261 20.1942 23.1739 20.1942H10.4918C9.10309 23.5 6.35428 24.7656 3.95652 24.7656C3.70924 24.7567 3.49507 24.5848 3.43105 24.3438C3.36702 24.1027 3.46416 23.846 3.67391 23.7121C4.42018 23.2589 4.8198 22.7076 5.03397 22.0513C5.20839 21.5179 5.21722 20.8817 5.13995 20.1942H2.82609C1.27395 20.1942 0 18.9062 0 17.3371V3.62277ZM23.1739 1.90848H2.82609C1.88995 1.90848 1.13043 2.67634 1.13043 3.62277V17.3371C1.13043 18.2835 1.88995 19.0513 2.82609 19.0513H5.65217C5.92154 19.0558 6.14895 19.25 6.19973 19.5156C6.38077 20.5201 6.40506 21.5067 6.11141 22.4085C5.9944 22.7701 5.78465 23.1071 5.56386 23.4263C7.19548 23.0045 8.76529 21.8504 9.64402 19.4263C9.72571 19.2009 9.93767 19.0513 10.1739 19.0513H23.1739C24.1101 19.0513 24.8696 18.2835 24.8696 17.3371V3.62277C24.8696 2.67634 24.1101 1.90848 23.1739 1.90848ZM7.34783 8.76562C6.41831 8.76562 5.65217 9.54018 5.65217 10.4799C5.65217 11.4196 6.41831 12.1942 7.34783 12.1942C8.27734 12.1942 9.04348 11.4196 9.04348 10.4799C9.04348 9.54018 8.27734 8.76562 7.34783 8.76562ZM11.3043 10.4799C11.3043 9.54018 12.0705 8.76562 13 8.76562C13.9295 8.76562 14.6957 9.54018 14.6957 10.4799C14.6957 11.4196 13.9295 12.1942 13 12.1942C12.0705 12.1942 11.3043 11.4196 11.3043 10.4799ZM18.6522 8.76562C17.7227 8.76562 16.9565 9.54018 16.9565 10.4799C16.9565 11.4196 17.7227 12.1942 18.6522 12.1942C19.5817 12.1942 20.3478 11.4196 20.3478 10.4799C20.3478 9.54018 19.5817 8.76562 18.6522 8.76562ZM7.91304 10.4799C7.91304 10.1585 7.66576 9.90848 7.34783 9.90848C7.02989 9.90848 6.78261 10.1585 6.78261 10.4799C6.78261 10.8013 7.02989 11.0513 7.34783 11.0513C7.66576 11.0513 7.91304 10.8013 7.91304 10.4799ZM13 9.90848C13.3179 9.90848 13.5652 10.1585 13.5652 10.4799C13.5652 10.8013 13.3179 11.0513 13 11.0513C12.6821 11.0513 12.4348 10.8013 12.4348 10.4799C12.4348 10.1585 12.6821 9.90848 13 9.90848ZM19.2174 10.4799C19.2174 10.1585 18.9701 9.90848 18.6522 9.90848C18.3342 9.90848 18.087 10.1585 18.087 10.4799C18.087 10.8013 18.3342 11.0513 18.6522 11.0513C18.9701 11.0513 19.2174 10.8013 19.2174 10.4799Z" fill="#181B1A"/>
</svg>
