<svg width="20" height="16" viewBox="0 0 20 16" fill="none" xmlns="http://www.w3.org/2000/svg">
<path fill-rule="evenodd" clip-rule="evenodd" d="M0 1.77778C0 0.795556 0.813645 0 1.8182 0H16.3638C17.3684 0 18.182 0.795556 18.182 1.77778V5.48611L16.3638 7.26389V4.44618L9.09101 8.88889L1.8182 4.44618V12.4444H11.0655L10.5328 12.9653L9.24726 14.2222H1.8182C0.813645 14.2222 0 13.4267 0 12.4444V1.77778ZM16.3638 1.77778H1.8182V2.6684L9.09101 7.11111L16.3638 2.6684V1.77778ZM18.3702 8C18.254 8 18.1375 8.04354 18.0488 8.13021L17.1397 9.0191L18.9579 10.7969L19.867 9.90799C20.0443 9.73465 20.0443 9.45285 19.867 9.27951L18.6916 8.13021C18.6025 8.04354 18.4865 8 18.3702 8ZM11.8183 14.2222L16.497 9.64757L18.3152 11.4253L13.6365 16H11.8183V14.2222Z" fill="white"/>
</svg>
