<svg width="18" height="20" viewBox="0 0 18 20" fill="none" xmlns="http://www.w3.org/2000/svg">
<path fill-rule="evenodd" clip-rule="evenodd" d="M6.99271 0.535238C7.58367 0.463762 8.16961 0.428855 8.75387 0.425531C8.94974 0.423869 9.14394 0.427193 9.33814 0.43218C10.1149 0.455451 10.8884 0.530252 11.6568 0.643284C12.9726 0.837765 14.3169 1.14362 15.5089 1.95811C16.505 2.63963 17.1545 3.60538 17.4776 4.74734C18.0268 6.69548 18.0887 8.67187 17.9112 10.6449C17.8041 11.8301 17.5178 12.9754 16.9821 14.0559C16.4581 15.1097 15.5926 15.8128 14.5563 16.2434C13.366 16.737 12.1289 16.8517 10.9151 16.9182C9.99438 16.9681 9.07363 17.003 8.15119 17.0213C8.04151 17.0241 8.03813 17.028 8.03291 17.0342C8.03192 17.0353 8.03086 17.0366 8.02898 17.0379C8.02128 17.0427 7.9964 17.07 7.95243 17.1183C7.91997 17.154 7.87711 17.2011 7.82307 17.259C7.11994 18.0236 5.1763 19.8803 5.1763 19.8803L5.05242 20H4.28735L4.28568 19.5761C4.28568 19.5761 4.27396 17.608 4.28568 16.5908C4.28733 16.4926 4.27437 16.4798 4.26918 16.4746L4.26894 16.4744C4.26392 16.4678 4.24048 16.4412 4.14505 16.3963C4.02651 16.3418 3.87007 16.2881 3.69564 16.2282C3.37002 16.1164 2.98171 15.9832 2.66012 15.7829C1.49327 15.0549 0.826975 13.9328 0.465368 12.6845C0.00666216 11.1004 -0.075369 9.48803 0.0568856 7.88065C0.125524 7.05286 0.24606 6.23005 0.395055 5.41888C0.746618 3.49568 1.95867 2.17254 3.66793 1.39295C4.74271 0.902592 5.86269 0.673204 6.99271 0.535238ZM11.5312 1.48437C10.7913 1.37467 10.053 1.30319 9.3147 1.28324C8.57474 1.26163 7.83646 1.28989 7.09818 1.37965C6.01503 1.51097 4.98713 1.72706 4.02452 2.16589C2.50108 2.8607 1.54349 3.90791 1.23881 5.57181C1.09316 6.36137 0.977644 7.15758 0.91068 7.95213C0.785122 9.48304 0.865479 10.9874 1.28903 12.4485C1.61213 13.5655 2.15622 14.4631 3.11548 15.0615C3.2666 15.1557 3.52627 15.2495 3.80989 15.3519L3.8099 15.3519L3.80992 15.3519C4.04155 15.4355 4.28916 15.5249 4.50666 15.625C4.6724 15.7015 4.84483 15.8078 4.97039 15.984C5.09595 16.1602 5.14617 16.383 5.14282 16.6007C5.13503 17.2604 5.13885 17.972 5.14212 18.5797L5.14282 18.7118L5.24558 18.6129C5.80672 18.0731 6.71978 17.1947 7.19193 16.6822C7.2177 16.6544 7.24164 16.6266 7.26578 16.5985L7.2658 16.5984C7.3342 16.5188 7.40419 16.4374 7.52173 16.3514C7.68077 16.235 7.9051 16.1752 8.13445 16.1702C9.04684 16.1519 9.95923 16.1187 10.8699 16.0688C12.0586 16.004 13.1869 15.8893 14.2249 15.4588C15.1188 15.0881 15.7851 14.5412 16.212 13.6802C16.6958 12.7045 16.9587 11.6689 17.0574 10.5701C17.2299 8.66356 17.1646 6.79687 16.6523 4.97507C16.3744 3.99601 15.8554 3.22806 15.0234 2.65957C13.9972 1.95811 12.8002 1.67221 11.5312 1.48437ZM9.4955 3.40425C9.14226 3.40425 8.79907 3.44415 8.46593 3.51729C8.23657 3.57048 8.09093 3.7982 8.14282 4.02759C8.19472 4.25698 8.42575 4.39993 8.65677 4.3484C8.9263 4.2869 9.20755 4.25532 9.4955 4.25532C11.5881 4.25532 13.2756 5.93085 13.2756 8.00698C13.2756 8.29455 13.2438 8.5738 13.1819 8.84308C13.13 9.07081 13.274 9.3002 13.505 9.35173C13.736 9.40326 13.9654 9.25864 14.0173 9.02925C14.0926 8.70013 14.1328 8.35937 14.1328 8.00698C14.1328 5.47041 12.0519 3.40425 9.4955 3.40425ZM5.0022 4.27526C5.07753 4.25864 5.14952 4.25366 5.21983 4.25698C5.43077 4.26862 5.61994 4.36669 5.78568 4.52294C6.3984 5.10306 6.88222 5.77626 7.2455 6.53092C7.40622 6.8617 7.33423 7.15425 7.06302 7.40026C7.0061 7.45179 6.94751 7.5 6.88557 7.54488C6.26615 8.00864 6.17575 8.35771 6.50722 9.05419C7.06972 10.2394 8.0022 11.0356 9.20923 11.5293C9.52731 11.6589 9.82697 11.5957 10.0714 11.3381C10.0782 11.3309 10.0853 11.3238 10.0925 11.3166L10.0925 11.3166L10.0925 11.3165C10.1185 11.2902 10.1454 11.263 10.1651 11.2317C10.6406 10.4438 11.3303 10.5219 11.9682 10.9707C12.2362 11.1602 12.4994 11.3559 12.7627 11.5515C12.9105 11.6614 13.0583 11.7712 13.207 11.88C13.8381 12.3404 13.8331 12.7726 13.4497 13.3959C13.1702 13.8497 12.75 14.1656 12.2544 14.37C11.8945 14.5196 11.5262 14.488 11.1696 14.3384C8.18468 13.0834 5.8426 11.107 4.29405 8.26463C4.05847 7.83127 3.87615 7.36874 3.69404 6.90675C3.63027 6.74497 3.56652 6.58325 3.50052 6.42287C3.46441 6.33497 3.45424 6.23579 3.44406 6.13655C3.43961 6.09317 3.43516 6.04978 3.42854 6.00731C3.4503 5.00665 4.22374 4.44648 5.0022 4.27526ZM9.4888 4.68085C9.29963 4.68085 9.11213 4.69581 8.92798 4.72739C8.77229 4.74734 8.64003 4.8504 8.58311 4.99501C8.52619 5.14129 8.55465 5.30585 8.6551 5.42553C8.75722 5.54355 8.91793 5.5984 9.07195 5.56516C9.20588 5.54355 9.34651 5.53191 9.4888 5.53191C10.8817 5.53191 12 6.64229 12 8.02526C12 8.16655 11.9882 8.30618 11.9665 8.43916C11.933 8.59209 11.9882 8.75166 12.1071 8.85306C12.2276 8.95279 12.3934 8.98105 12.5407 8.92453C12.6863 8.86802 12.7901 8.7367 12.8102 8.58211C12.842 8.39927 12.8571 8.2131 12.8571 8.02526C12.8571 6.18351 11.3437 4.68085 9.4888 4.68085ZM9.05186 6.16855C9.13055 6.03557 9.27452 5.95578 9.42854 5.95745C10.6071 5.95745 11.5714 6.91489 11.5714 8.08511C11.5731 8.23803 11.4927 8.38098 11.3588 8.45911C11.2249 8.53557 11.0608 8.53557 10.9269 8.45911C10.7929 8.38098 10.7126 8.23803 10.7143 8.08511C10.7143 7.37533 10.1434 6.80851 9.42854 6.80851C9.27452 6.81017 9.13055 6.73038 9.05186 6.59741C8.97485 6.46443 8.97485 6.30153 9.05186 6.16855Z" fill="white"/>
</svg>
