<svg width="16" height="16" viewBox="0 0 16 16" fill="none" xmlns="http://www.w3.org/2000/svg">
<path fill-rule="evenodd" clip-rule="evenodd" d="M4.70455 0C2.12216 0 0 2.11932 0 4.70455V11.2955C0 13.8778 2.11932 16 4.70455 16H11.2955C13.8778 16 16 13.8807 16 11.2955V4.70455C16 2.12216 13.8807 0 11.2955 0H4.70455ZM4.70455 1.45455H11.2955C13.0938 1.45455 14.5455 2.90625 14.5455 4.70455V11.2955C14.5455 13.0938 13.0938 14.5455 11.2955 14.5455H4.70455C2.90625 14.5455 1.45455 13.0938 1.45455 11.2955V4.70455C1.45455 2.90625 2.90625 1.45455 4.70455 1.45455ZM12.2955 3.04545C11.929 3.04545 11.6364 3.33807 11.6364 3.70455C11.6364 4.07102 11.929 4.36364 12.2955 4.36364C12.6619 4.36364 12.9545 4.07102 12.9545 3.70455C12.9545 3.33807 12.6619 3.04545 12.2955 3.04545ZM8 3.63636C5.59943 3.63636 3.63636 5.59943 3.63636 8C3.63636 10.4006 5.59943 12.3636 8 12.3636C10.4006 12.3636 12.3636 10.4006 12.3636 8C12.3636 5.59943 10.4006 3.63636 8 3.63636ZM8 5.09091C9.61648 5.09091 10.9091 6.38352 10.9091 8C10.9091 9.61648 9.61648 10.9091 8 10.9091C6.38352 10.9091 5.09091 9.61648 5.09091 8C5.09091 6.38352 6.38352 5.09091 8 5.09091Z" fill="white"/>
</svg>
