<svg width="25" height="25" viewBox="0 0 25 25" fill="none" xmlns="http://www.w3.org/2000/svg">
<path d="M3.01611 20.0176L3.87061 19.0337C4.04067 18.8441 4.12955 18.5953 4.11816 18.3408V18.1792C4.11816 17.8203 3.93066 17.625 3.56445 17.625H0.78125C0.67765 17.625 0.578293 17.6662 0.505036 17.7394C0.43178 17.8127 0.390625 17.912 0.390625 18.0156V18.7969C0.390625 18.9005 0.43178 18.9998 0.505036 19.0731C0.578293 19.1463 0.67765 19.1875 0.78125 19.1875H1.896C1.70657 19.3783 1.52729 19.579 1.35889 19.7886L1.08496 20.1304C0.889648 20.3779 0.828613 20.625 0.948242 20.8569L0.999512 20.9512C1.146 21.2324 1.30664 21.3359 1.59766 21.3359H1.82861C2.33301 21.3359 2.60693 21.4551 2.60693 21.7798C2.60693 22.0103 2.40186 22.1812 1.90576 22.1812C1.64655 22.1791 1.39013 22.1274 1.15039 22.0288C0.833496 21.8394 0.577148 21.8579 0.388672 22.1812L0.115723 22.6357C-0.065918 22.9351 -0.0400391 23.208 0.244141 23.4141C0.620605 23.6431 1.23926 23.875 2.05078 23.875C3.71875 23.875 4.41895 22.7642 4.41895 21.7207C4.41748 21.0186 3.97363 20.2676 3.01611 20.0176ZM24.2188 11.375H8.59375C8.38655 11.375 8.18784 11.4573 8.04132 11.6038C7.89481 11.7503 7.8125 11.949 7.8125 12.1562V13.7188C7.8125 13.926 7.89481 14.1247 8.04132 14.2712C8.18784 14.4177 8.38655 14.5 8.59375 14.5H24.2188C24.426 14.5 24.6247 14.4177 24.7712 14.2712C24.9177 14.1247 25 13.926 25 13.7188V12.1562C25 11.949 24.9177 11.7503 24.7712 11.6038C24.6247 11.4573 24.426 11.375 24.2188 11.375ZM24.2188 3.5625H8.59375C8.38655 3.5625 8.18784 3.64481 8.04132 3.79132C7.89481 3.93784 7.8125 4.13655 7.8125 4.34375V5.90625C7.8125 6.11345 7.89481 6.31216 8.04132 6.45868C8.18784 6.60519 8.38655 6.6875 8.59375 6.6875H24.2188C24.426 6.6875 24.6247 6.60519 24.7712 6.45868C24.9177 6.31216 25 6.11345 25 5.90625V4.34375C25 4.13655 24.9177 3.93784 24.7712 3.79132C24.6247 3.64481 24.426 3.5625 24.2188 3.5625ZM24.2188 19.1875H8.59375C8.38655 19.1875 8.18784 19.2698 8.04132 19.4163C7.89481 19.5628 7.8125 19.7615 7.8125 19.9688V21.5312C7.8125 21.7385 7.89481 21.9372 8.04132 22.0837C8.18784 22.2302 8.38655 22.3125 8.59375 22.3125H24.2188C24.426 22.3125 24.6247 22.2302 24.7712 22.0837C24.9177 21.9372 25 21.7385 25 21.5312V19.9688C25 19.7615 24.9177 19.5628 24.7712 19.4163C24.6247 19.2698 24.426 19.1875 24.2188 19.1875ZM0.78125 8.25H3.90625C4.00985 8.25 4.10921 8.20885 4.18246 8.13559C4.25572 8.06233 4.29688 7.96298 4.29688 7.85938V7.07812C4.29688 6.97452 4.25572 6.87517 4.18246 6.80191C4.10921 6.72865 4.00985 6.6875 3.90625 6.6875H3.125V2.39062C3.125 2.28702 3.08384 2.18767 3.01059 2.11441C2.93733 2.04116 2.83798 2 2.73438 2H1.5625C1.4901 2.00013 1.41915 2.02038 1.35759 2.05849C1.29603 2.0966 1.24627 2.15107 1.21387 2.21582L0.823242 2.99707C0.793467 3.05657 0.779384 3.12269 0.782329 3.18917C0.785274 3.25564 0.805149 3.32025 0.84007 3.37689C0.874991 3.43353 0.923799 3.4803 0.981867 3.51279C1.03994 3.54527 1.10534 3.56238 1.17188 3.5625H1.5625V6.6875H0.78125C0.67765 6.6875 0.578293 6.72865 0.505036 6.80191C0.43178 6.87517 0.390625 6.97452 0.390625 7.07812V7.85938C0.390625 7.96298 0.43178 8.06233 0.505036 8.13559C0.578293 8.20885 0.67765 8.25 0.78125 8.25ZM0.590332 16.0625H3.90625C4.00985 16.0625 4.10921 16.0213 4.18246 15.9481C4.25572 15.8748 4.29688 15.7755 4.29688 15.6719V14.8906C4.29688 14.787 4.25572 14.6877 4.18246 14.6144C4.10921 14.5412 4.00985 14.5 3.90625 14.5H2.01758C2.17822 13.9976 4.37793 13.5879 4.37793 11.7441C4.37793 10.3252 3.15723 9.8125 2.20654 9.8125C1.16357 9.8125 0.556152 10.3008 0.230957 10.728C0.0175781 11.001 0.0844727 11.2573 0.367676 11.4785L0.786621 11.8145C1.06055 12.0371 1.32373 11.9351 1.57373 11.6953C1.69704 11.5745 1.863 11.5071 2.03564 11.5078C2.19824 11.5078 2.48877 11.584 2.48877 11.9351C2.49023 12.5562 0 13.0015 0 15.3101V15.5054C0 15.8672 0.248047 16.0625 0.590332 16.0625Z" fill="black"/>
</svg>
