<svg width="18" height="18" viewBox="0 0 18 18" fill="none" xmlns="http://www.w3.org/2000/svg">
<path d="M7.39583 0.75C3.73358 0.75 0.75 3.73358 0.75 7.39583C0.75 11.0581 3.73358 14.0417 7.39583 14.0417C8.98 14.0417 10.4363 13.4821 11.5799 12.5521L16.0764 17.0486C16.1398 17.1146 16.2156 17.1672 16.2996 17.2035C16.3836 17.2398 16.4739 17.259 16.5654 17.2599C16.6569 17.2608 16.7476 17.2435 16.8323 17.2089C16.917 17.1744 16.9939 17.1232 17.0586 17.0586C17.1232 16.9939 17.1744 16.917 17.2089 16.8323C17.2435 16.7476 17.2608 16.6569 17.2599 16.5654C17.259 16.4739 17.2398 16.3836 17.2035 16.2996C17.1672 16.2156 17.1146 16.1398 17.0486 16.0764L12.5521 11.5799C13.4821 10.4363 14.0417 8.98 14.0417 7.39583C14.0417 3.73358 11.0581 0.75 7.39583 0.75ZM7.39583 2.125C10.315 2.125 12.6667 4.47669 12.6667 7.39583C12.6667 8.81786 12.1058 10.1026 11.1959 11.0491C11.1398 11.0903 11.0903 11.1398 11.0491 11.1959C10.1026 12.1058 8.81786 12.6667 7.39583 12.6667C4.47669 12.6667 2.125 10.315 2.125 7.39583C2.125 4.47669 4.47669 2.125 7.39583 2.125Z" fill="white"/>
</svg>
