<svg width="100" height="15" viewBox="0 0 100 15" fill="none" xmlns="http://www.w3.org/2000/svg">
<path d="M3.27727 15C3.21324 15 3.14921 14.9685 3.08517 14.937C2.98912 14.8739 2.92509 14.7164 2.9571 14.5903L4.36585 9.42227L0.139616 6.05042C0.0115479 5.9874 -0.0204691 5.82983 0.0115479 5.70378C0.0435648 5.57773 0.171632 5.48319 0.2997 5.48319L5.74258 5.19958L7.69561 0.189076C7.75964 0.0945378 7.88771 0 8.01578 0C8.14385 0 8.27191 0.0945378 8.30393 0.189076L10.257 5.19958L15.6998 5.48319C15.8279 5.48319 15.956 5.57773 15.988 5.70378C16.02 5.82983 15.988 5.95588 15.8919 6.05042L11.6657 9.42227L13.0745 14.5903C13.1065 14.7164 13.0745 14.8424 12.9464 14.937C12.8503 15 12.6903 15.0315 12.5942 14.937L8.01578 12.0378L3.43736 14.937C3.37333 15 3.34131 15 3.27727 15Z" fill="#FDAA34"/>
<path d="M24.2773 15C24.2132 15 24.1492 14.9685 24.0852 14.937C23.9891 14.8739 23.9251 14.7164 23.9571 14.5903L25.3658 9.42227L21.1396 6.05042C21.0115 5.9874 20.9795 5.82983 21.0115 5.70378C21.0436 5.57773 21.1716 5.48319 21.2997 5.48319L26.7426 5.19958L28.6956 0.189076C28.7596 0.0945378 28.8877 0 29.0158 0C29.1438 0 29.2719 0.0945378 29.3039 0.189076L31.257 5.19958L36.6998 5.48319C36.8279 5.48319 36.956 5.57773 36.988 5.70378C37.02 5.82983 36.988 5.95588 36.8919 6.05042L32.6657 9.42227L34.0745 14.5903C34.1065 14.7164 34.0745 14.8424 33.9464 14.937C33.8503 15 33.6903 15.0315 33.5942 14.937L29.0158 12.0378L24.4374 14.937C24.3733 15 24.3413 15 24.2773 15Z" fill="#FDAA34"/>
<path d="M45.2773 15C45.2132 15 45.1492 14.9685 45.0852 14.937C44.9891 14.8739 44.9251 14.7164 44.9571 14.5903L46.3658 9.42227L42.1396 6.05042C42.0115 5.9874 41.9795 5.82983 42.0115 5.70378C42.0436 5.57773 42.1716 5.48319 42.2997 5.48319L47.7426 5.19958L49.6956 0.189076C49.7596 0.0945378 49.8877 0 50.0158 0C50.1438 0 50.2719 0.0945378 50.3039 0.189076L52.257 5.19958L57.6998 5.48319C57.8279 5.48319 57.956 5.57773 57.988 5.70378C58.02 5.82983 57.988 5.95588 57.8919 6.05042L53.6657 9.42227L55.0745 14.5903C55.1065 14.7164 55.0745 14.8424 54.9464 14.937C54.8503 15 54.6903 15.0315 54.5942 14.937L50.0158 12.0378L45.4374 14.937C45.3733 15 45.3413 15 45.2773 15Z" fill="#FDAA34"/>
<path d="M66.2773 15C66.2132 15 66.1492 14.9685 66.0852 14.937C65.9891 14.8739 65.9251 14.7164 65.9571 14.5903L67.3658 9.42227L63.1396 6.05042C63.0115 5.9874 62.9795 5.82983 63.0115 5.70378C63.0436 5.57773 63.1716 5.48319 63.2997 5.48319L68.7426 5.19958L70.6956 0.189076C70.7596 0.0945378 70.8877 0 71.0158 0C71.1438 0 71.2719 0.0945378 71.3039 0.189076L73.257 5.19958L78.6998 5.48319C78.8279 5.48319 78.956 5.57773 78.988 5.70378C79.02 5.82983 78.988 5.95588 78.8919 6.05042L74.6657 9.42227L76.0745 14.5903C76.1065 14.7164 76.0745 14.8424 75.9464 14.937C75.8503 15 75.6903 15.0315 75.5942 14.937L71.0158 12.0378L66.4374 14.937C66.3733 15 66.3413 15 66.2773 15Z" fill="#FDAA34"/>
<path d="M87.2773 15C87.2132 15 87.1492 14.9685 87.0852 14.937C86.9891 14.8739 86.9251 14.7164 86.9571 14.5903L88.3658 9.42227L84.1396 6.05042C84.0115 5.9874 83.9795 5.82983 84.0115 5.70378C84.0436 5.57773 84.1716 5.48319 84.2997 5.48319L89.7426 5.19958L91.6956 0.189076C91.7596 0.0945378 91.8877 0 92.0158 0C92.1438 0 92.2719 0.0945378 92.3039 0.189076L94.257 5.19958L99.6998 5.48319C99.8279 5.48319 99.956 5.57773 99.988 5.70378C100.02 5.82983 99.988 5.95588 99.8919 6.05042L95.6657 9.42227L97.0745 14.5903C97.1065 14.7164 97.0745 14.8424 96.9464 14.937C96.8503 15 96.6903 15.0315 96.5942 14.937L92.0158 12.0378L87.4374 14.937C87.3733 15 87.3413 15 87.2773 15Z" fill="#FDAA34"/>
</svg>
