<svg width="16" height="16" viewBox="0 0 16 16" fill="none" xmlns="http://www.w3.org/2000/svg">
<path fill-rule="evenodd" clip-rule="evenodd" d="M8 3C5.97147 3 4.11957 3.5399 2.70924 4.42857H0C0 4.42857 0.610054 5.19727 0.896739 6.06362C0.336957 6.79325 0 7.71261 0 8.71429C0 11.0818 1.86821 13 4.17391 13C5.38995 13 6.48234 12.4615 7.24457 11.6091L8 12.6429L8.75543 11.6091C9.51766 12.4615 10.6101 13 11.8261 13C14.1318 13 16 11.0818 16 8.71429C16 7.71261 15.663 6.79325 15.1033 6.06362C15.3899 5.19727 16 4.42857 16 4.42857H13.288C11.8777 3.5399 10.0272 3 8 3ZM8 3.71429C9.35054 3.71429 10.6386 3.9668 11.7568 4.43276C10.0747 4.46066 8.63451 5.50977 8 7.0053C7.36413 5.50698 5.9212 4.45647 4.2337 4.43276L4.25815 4.42439C5.375 3.96401 6.65897 3.71429 8 3.71429ZM4.17391 5.14286C6.09511 5.14286 7.65217 6.74163 7.65217 8.71429C7.65217 10.6869 6.09511 12.2857 4.17391 12.2857C2.25272 12.2857 0.695652 10.6869 0.695652 8.71429C0.695652 6.74163 2.25272 5.14286 4.17391 5.14286ZM11.8261 5.14286C13.7473 5.14286 15.3043 6.74163 15.3043 8.71429C15.3043 10.6869 13.7473 12.2857 11.8261 12.2857C9.90489 12.2857 8.34783 10.6869 8.34783 8.71429C8.34783 6.74163 9.90489 5.14286 11.8261 5.14286ZM4.17391 6.57143C3.02174 6.57143 2.08696 7.53125 2.08696 8.71429C2.08696 9.89732 3.02174 10.8571 4.17391 10.8571C5.32609 10.8571 6.26087 9.89732 6.26087 8.71429C6.26087 7.53125 5.32609 6.57143 4.17391 6.57143ZM11.8261 6.57143C10.6739 6.57143 9.73913 7.53125 9.73913 8.71429C9.73913 9.89732 10.6739 10.8571 11.8261 10.8571C12.9783 10.8571 13.913 9.89732 13.913 8.71429C13.913 7.53125 12.9783 6.57143 11.8261 6.57143ZM4.17391 7.28571C4.94293 7.28571 5.56522 7.92467 5.56522 8.71429C5.56522 9.50391 4.94293 10.1429 4.17391 10.1429C3.40489 10.1429 2.78261 9.50391 2.78261 8.71429C2.78261 7.92467 3.40489 7.28571 4.17391 7.28571ZM11.8261 7.28571C12.5951 7.28571 13.2174 7.92467 13.2174 8.71429C13.2174 9.50391 12.5951 10.1429 11.8261 10.1429C11.0571 10.1429 10.4348 9.50391 10.4348 8.71429C10.4348 7.92467 11.0571 7.28571 11.8261 7.28571ZM4.17391 8C3.7894 8 3.47826 8.31948 3.47826 8.71429C3.47826 9.1091 3.7894 9.42857 4.17391 9.42857C4.55842 9.42857 4.86957 9.1091 4.86957 8.71429C4.86957 8.31948 4.55842 8 4.17391 8ZM11.8261 8C11.4416 8 11.1304 8.31948 11.1304 8.71429C11.1304 9.1091 11.4416 9.42857 11.8261 9.42857C12.2106 9.42857 12.5217 9.1091 12.5217 8.71429C12.5217 8.31948 12.2106 8 11.8261 8Z" fill="white"/>
</svg>
