<svg width="16" height="16" viewBox="0 0 16 16" fill="none" xmlns="http://www.w3.org/2000/svg">
<path fill-rule="evenodd" clip-rule="evenodd" d="M16 3.53851C15.4102 3.80033 14.778 3.97612 14.1133 4.05591C14.7917 3.64947 15.3129 3.00614 15.5573 2.24063C14.9239 2.6159 14.2193 2.88894 13.4724 3.03606C12.8738 2.39772 12.0209 2 11.0769 2C9.26381 2 7.79362 3.46869 7.79362 5.28148C7.79362 5.53831 7.82355 5.78891 7.87967 6.02954C5.15127 5.89239 2.73338 4.58579 1.11355 2.59969C0.830489 3.08593 0.669628 3.64947 0.669628 4.25041C0.669628 5.3887 1.24823 6.39359 2.12984 6.98331C1.59115 6.96586 1.08487 6.81749 0.642195 6.57188C0.642195 6.58559 0.642195 6.59931 0.642195 6.61302C0.642195 8.20389 1.77445 9.5292 3.27457 9.83217C3.00023 9.90697 2.70969 9.94687 2.41041 9.94687C2.19843 9.94687 1.99267 9.92692 1.79191 9.88702C2.2109 11.1899 3.42296 12.1412 4.85823 12.1674C3.73595 13.0476 2.32063 13.5712 0.781856 13.5712C0.51625 13.5712 0.255631 13.5562 0 13.5251C1.45148 14.4577 3.1773 15 5.03156 15C11.0694 15 14.3714 9.99923 14.3714 5.66299C14.3714 5.52086 14.3677 5.37748 14.3627 5.23784C15.0037 4.77529 15.5598 4.1968 16 3.53851Z" fill="white"/>
</svg>
